<svg width="173" height="95" viewBox="0 0 173 95" fill="none" xmlns="http://www.w3.org/2000/svg">
<path d="M70.5 33H50L57 42.9902H58.381V62.9707C58.381 65.1469 59.0623 67.3931 59.9524 68.9553C60.7661 70.3834 61.3769 71.1177 62.5714 72.2197C63.6743 73.2371 64.7985 73.9038 67.5 74.4391C71.6209 75.2556 77.5 74.94 77.5 74.94V63C77.5 63 76 63.5 74 63.5C72 63.5 70.5 62 70.5 60.5V33Z" fill="#4F46E5"/>
<circle cx="63.5" cy="21.5" r="6.5" fill="#4F46E5"/>
<circle cx="39.5" cy="21.5" r="6.5" fill="#4F46E5"/>
<path d="M44.5 33L51.5 43H44.4621V75H32.5V33H44.5Z" fill="#4F46E5"/>
<path d="M32.6101 75V33H44.4901V75H32.6101ZM4.53008 75V33H16.4101V75H4.53008ZM15.5701 58.62V48.78H33.4501V58.62H15.5701Z" fill="#4F46E5"/>
<path d="M83.8201 75V33.036H95.4421V44.892L93.8041 41.46C95.0521 38.496 97.0541 36.26 99.8101 34.752C102.566 33.192 105.92 32.412 109.872 32.412V43.644C109.352 43.592 108.884 43.566 108.468 43.566C108.052 43.514 107.61 43.488 107.142 43.488C103.814 43.488 101.11 44.45 99.0301 46.374C97.0021 48.246 95.9881 51.184 95.9881 55.188V75H83.8201Z" fill="#4F46E5"/>
<path d="M115.886 75V33.036H128.054V75H115.886ZM121.97 27.186C119.734 27.186 117.914 26.536 116.51 25.236C115.106 23.936 114.404 22.324 114.404 20.4C114.404 18.476 115.106 16.864 116.51 15.564C117.914 14.264 119.734 13.614 121.97 13.614C124.206 13.614 126.026 14.238 127.43 15.486C128.834 16.682 129.536 18.242 129.536 20.166C129.536 22.194 128.834 23.884 127.43 25.236C126.078 26.536 124.258 27.186 121.97 27.186Z" fill="#4F46E5"/>
<path d="M151.015 75.624C147.427 75.624 143.969 75.208 140.641 74.376C137.365 73.492 134.765 72.4 132.841 71.1L136.897 62.364C138.821 63.56 141.083 64.548 143.683 65.328C146.335 66.056 148.935 66.42 151.483 66.42C154.291 66.42 156.267 66.082 157.411 65.406C158.607 64.73 159.205 63.794 159.205 62.598C159.205 61.61 158.737 60.882 157.801 60.414C156.917 59.894 155.721 59.504 154.213 59.244C152.705 58.984 151.041 58.724 149.221 58.464C147.453 58.204 145.659 57.866 143.839 57.45C142.019 56.982 140.355 56.306 138.847 55.422C137.339 54.538 136.117 53.342 135.181 51.834C134.297 50.326 133.855 48.376 133.855 45.984C133.855 43.332 134.609 40.992 136.117 38.964C137.677 36.936 139.913 35.35 142.825 34.206C145.737 33.01 149.221 32.412 153.277 32.412C156.137 32.412 159.049 32.724 162.013 33.348C164.977 33.972 167.447 34.882 169.423 36.078L165.367 44.736C163.339 43.54 161.285 42.734 159.205 42.318C157.177 41.85 155.201 41.616 153.277 41.616C150.573 41.616 148.597 41.98 147.349 42.708C146.101 43.436 145.477 44.372 145.477 45.516C145.477 46.556 145.919 47.336 146.803 47.856C147.739 48.376 148.961 48.792 150.469 49.104C151.977 49.416 153.615 49.702 155.383 49.962C157.203 50.17 159.023 50.508 160.843 50.976C162.663 51.444 164.301 52.12 165.757 53.004C167.265 53.836 168.487 55.006 169.423 56.514C170.359 57.97 170.827 59.894 170.827 62.286C170.827 64.886 170.047 67.2 168.487 69.228C166.927 71.204 164.665 72.764 161.701 73.908C158.789 75.052 155.227 75.624 151.015 75.624Z" fill="#4F46E5"/>
</svg>
